<?xml version="1.0" encoding="UTF-8"?>
<svg width="16px" height="16px" viewBox="0 0 16 16" version="1.1" xmlns="http://www.w3.org/2000/svg" xmlns:xlink="http://www.w3.org/1999/xlink">
    <!-- Generator: Sketch 62 (91390) - https://sketch.com -->
    <title>Artboard</title>
    <desc>Created with Sketch.</desc>
    <g id="Artboard" stroke="none" stroke-width="1" fill="none" fill-rule="evenodd">
        <g id="question-(1)" transform="translate(4.500000, 2.600000)" fill="#61BFAD" fill-rule="nonzero">
            <circle id="Oval" cx="4" cy="10" r="1"></circle>
            <path d="M3.5,0 C1.57008654,0 0,1.54654144 0,3.44751381 L0,3.77900552 L2.69230769,3.77900552 L2.69230769,3.44751381 C2.69230769,3.00881768 3.054625,2.6519337 3.5,2.6519337 C3.945375,2.6519337 4.30769231,3.00881768 4.30769231,3.44751381 C4.30769231,3.68128177 4.20352244,3.90254144 4.02185897,4.05460773 L2.15384615,5.61896133 L2.15384615,8 L4.84615385,8 L4.84615385,6.84512707 L5.76548718,6.07524862 C6.55002564,5.41858564 7,4.46083978 7,3.44751381 C7,1.54654144 5.42991346,0 3.5,0 Z" id="Path"></path>
        </g>
    </g>
</svg>